<svg xmlns="http://www.w3.org/2000/svg" viewBox="0 0 62.998 63">
  <defs>
    <style>
      .cls-1 {
        fill: #00ced1;
      }
      .cls-1:hover {
        fill: pink;
      }
    </style>
  </defs>
  <g id="_006-chemistry" data-name="006-chemistry" transform="translate(-11.2 -10.9)">
    <g id="Group_90" data-name="Group 90" transform="translate(11.2 10.9)">
      <path id="Path_31" data-name="Path 31" class="cls-1" d="M73.493,65.4,59.013,39.873,58.665,27h.553a2.623,2.623,0,0,0,0-5.247H37.974a2.623,2.623,0,0,0,0,5.247h.553l-.373,12.911-4.347,7.677V16.147h.772a2.623,2.623,0,0,0,0-5.247H13.823a2.623,2.623,0,1,0,0,5.247h.772V53.44A9.615,9.615,0,0,0,24.2,63.046c.283,0,.579-.013.862-.039L23.7,65.4a5.29,5.29,0,0,0,.026,5.324A6.794,6.794,0,0,0,29.654,73.9H67.539a6.794,6.794,0,0,0,5.928-3.176A5.29,5.29,0,0,0,73.493,65.4ZM28.561,16.147V31.141H19.842V16.147ZM19.842,53.44V36.388h8.719V53.44a4.359,4.359,0,1,1-8.719,0Zm47.7,15.213H29.654c-.952,0-1.389-.5-1.389-.656L42.732,42.522a5.409,5.409,0,0,0,.707-2.495l.36-13.014h9.619l.36,13.014a5.409,5.409,0,0,0,.707,2.495L68.979,68.036a1.64,1.64,0,0,1-1.44.617Z" transform="translate(-11.2 -10.9)"/>
    </g>
  </g>
</svg>
