<svg xmlns="http://www.w3.org/2000/svg" id="Layer_1" data-name="Layer 1" viewBox="0 0 61.43 65">
    <defs>
        <style>
            .cls-1{fill:#00ced1;}
        </style>
    </defs>
    <title>
        fiziyo
    </title>
    <path d="M35.83,5.64a7.67,7.67,0,1,0,7.67,7.67A7.68,7.68,0,0,0,35.83,5.64Zm0,11.51a3.84,3.84,0,1,1,3.84-3.84A3.84,3.84,0,0,1,35.83,17.15Z" class="cls-1"/>
    <path d="M60.13,45.93a5.76,5.76,0,0,0-5.45-5.75,5.78,5.78,0,0,0-.06-4,5.76,5.76,0,1,0-3.35-11l-.59.2a9.55,9.55,0,0,0-8-4.33H30.07a9.6,9.6,0,0,0-9.59,9.59v3.84a9.54,9.54,0,0,0,1.92,5.76h0A5.75,5.75,0,0,0,17,47.85H15.61A7.67,7.67,0,1,0,3.34,49.21,5.75,5.75,0,0,0,7.05,59.36H54.38a5.75,5.75,0,0,0,4.29-9.59A5.73,5.73,0,0,0,60.13,45.93ZM52.49,28.76A1.91,1.91,0,0,1,54.92,30h0a1.92,1.92,0,0,1-1.21,2.43l-8.89,3a1.92,1.92,0,0,0-1.31,1.82v3H39.67V34.84c.07-.31-.1-1.77,1.31-2.24ZM49.87,40.08a1.92,1.92,0,0,1-2.42-1.21l-.1-.29h0L51,37.35l.1.29A1.92,1.92,0,0,1,49.87,40.08ZM24.32,30.58a5.76,5.76,0,0,1,5.76-5.76H42.66a5.73,5.73,0,0,1,4.16,1.78L39.77,29a5.69,5.69,0,0,0-3.69,4,5.72,5.72,0,0,0-2.16-.42H32V30.58a1.91,1.91,0,1,0-3.82,0v3.83h0a1.92,1.92,0,0,0,1.92,1.92h3.84a1.92,1.92,0,1,1,0,3.84H30.08a5.76,5.76,0,0,1-5.76-5.76V30.58ZM9,40.17A3.84,3.84,0,1,1,5.14,44,3.84,3.84,0,0,1,9,40.17Zm45.4,15.35H7.05a1.92,1.92,0,1,1,0-3.84H54.38a1.92,1.92,0,1,1,0,3.84Zm0-7.67h-32a1.92,1.92,0,1,1,0-3.84h32a1.92,1.92,0,0,1,0,3.84Z" class="cls-1"/>
</svg>
