<svg xmlns="http://www.w3.org/2000/svg" viewBox="0 0 63 63">
  <defs>
    <style>
      .cls-1 {
        fill: #007FFF;
      }
    </style>
  </defs>
  <g id="_005-hospital" data-name="005-hospital" transform="translate(-11.098 -10.775)">
    <g id="Group_92" data-name="Group 92" transform="translate(11.098 10.775)">
      <g id="Group_91" data-name="Group 91" transform="translate(0 0)">
        <path id="Path_32" data-name="Path 32" class="cls-1" d="M73.144,35.308,44.281,11.382a2.621,2.621,0,0,0-3.356,0L12.05,35.308a2.63,2.63,0,1,0,3.356,4.05L17.3,37.79V71.152a2.617,2.617,0,0,0,2.623,2.623h45.37a2.617,2.617,0,0,0,2.623-2.623V37.79l1.89,1.568a2.57,2.57,0,0,0,3.7-.347,2.643,2.643,0,0,0-.36-3.7ZM62.666,68.529H22.541V36.17H62.666ZM25.575,30.924,42.6,16.821l17.022,14.1Z" transform="translate(-11.098 -10.775)"/>
        <path id="Path_33" data-name="Path 33" class="cls-1" d="M188.223,272.587h3.818V276.4a2.623,2.623,0,1,0,5.245,0v-3.818H201.1a2.623,2.623,0,1,0,0-5.245h-3.818v-3.818a2.623,2.623,0,0,0-5.245,0v3.818h-3.818a2.623,2.623,0,1,0,0,5.245Z" transform="translate(-163.165 -228.743)"/>
      </g>
    </g>
  </g>
</svg>
