<svg id="Layer_1" data-name="Layer 1" xmlns="http://www.w3.org/2000/svg" viewBox="0 0 61.43 65"><defs><style>.cls-1{fill:#00ced1;}</style></defs><title>ortoped</title><path class="cls-1" d="M58.55,46.9,50,38.34a9,9,0,1,0-16.63-5.77,9,9,0,1,0,5.77,16.63l8.55,8.55a2.37,2.37,0,0,0,3.35-3.35l-10-10a2.38,2.38,0,0,0-3.35,0,4.21,4.21,0,1,1-2.33-7.14,2.36,2.36,0,0,0,2.7-2.7,4.21,4.21,0,1,1,7.14,2.33,2.38,2.38,0,0,0,0,3.35l10,10a2.38,2.38,0,0,0,3.35,0,2.35,2.35,0,0,0,0-3.34Z"/><path class="cls-1" d="M30,29.16a9,9,0,1,0-5.77-16.63L15.63,4a2.37,2.37,0,0,0-3.35,3.35l10,10a2.38,2.38,0,0,0,3.35,0A4.21,4.21,0,1,1,28,24.47a2.36,2.36,0,0,0-2.7,2.7,4.21,4.21,0,1,1-7.14-2.33,2.38,2.38,0,0,0,0-3.35l-10-10a2.37,2.37,0,0,0-3.35,3.35l8.55,8.55A8.95,8.95,0,1,0,30,29.16Z"/></svg>