<svg xmlns="http://www.w3.org/2000/svg" viewBox="0 0 65.826 65.8">
  <defs>
    <style>
      .cls-1 {
        fill: #007FFF;
      }
    </style>
  </defs>
  <g id="_002-phonendoscope" data-name="002-phonendoscope" transform="translate(-11.1 -10.8)">
    <g id="Group_94" data-name="Group 94" transform="translate(11.1 10.8)">
      <path id="Path_36" data-name="Path 36" class="cls-1" d="M75.463,15.945a10.6,10.6,0,0,0-9.2-5.132,2.781,2.781,0,0,0,0,5.562,5.158,5.158,0,0,1,4.5,2.458,4.424,4.424,0,0,1,.188,4.339L61.128,39.2c-.04.054-.067.121-.107.188a5.094,5.094,0,0,1-4.608,2.727h-.04a5.11,5.11,0,0,1-4.621-2.687.762.762,0,0,0-.107-.175L41.582,23.213a4.474,4.474,0,0,1,.148-4.366,5.159,5.159,0,0,1,4.514-2.485,2.781,2.781,0,0,0,0-5.562A10.624,10.624,0,0,0,37,15.986a10.1,10.1,0,0,0-.242,9.928.762.762,0,0,0,.107.175l10.076,16.04a10.532,10.532,0,0,0,6.408,5.1c-.914,9.726-4.084,22.515-8.961,23.711-1.666.4-6.408-.228-15.14-14.307a10.5,10.5,0,1,0-7.631,3.3,10.472,10.472,0,0,0,2.915-.416C31.627,70.985,37.9,76.6,43.61,76.6a8.311,8.311,0,0,0,2.069-.255C55.621,73.9,58.24,54.367,58.858,47.354a10.619,10.619,0,0,0,7-5.347l9.834-16.04c.04-.054.067-.121.107-.188a10.027,10.027,0,0,0-.336-9.834ZM16.621,49.383a5.011,5.011,0,1,1,5.011,5.024,5.022,5.022,0,0,1-5.011-5.024Z" transform="translate(-11.1 -10.8)"/>
    </g>
  </g>
</svg>
