<svg height="496pt" viewBox="-61 0 496 496.00185" width="496pt" xmlns="http://www.w3.org/2000/svg"><path d="m48.257812 496h277.488282c26.433594 0 48.253906-20.699219 48.253906-46.148438v-336.566406c0-25.445312-21.820312-46.285156-48.253906-46.285156h-43.746094v-26.011719c.019531-2.644531-1.015625-5.183593-2.875-7.058593-1.863281-1.875-4.394531-2.925782-7.035156-2.929688h-38.199219c-7.539063-18-26.300781-31-47.402344-31h-.160156c-20.53125-.171875-39.136719 12.074219-47.097656 31h-37.859375c-5.59375-.035156-10.195313 4.398438-10.371094 9.988281v26.011719h-42.742188c-26.433593 0-48.257812 20.839844-48.257812 46.285156v336.566406c0 25.449219 21.824219 46.148438 48.257812 46.148438zm62.742188-445h35.351562c4.5625 0 8.546876-3.089844 9.683594-7.511719 3.558594-13.835937 16.039063-23.5 30.324219-23.488281h.101563c14.683593 0 27.4375 9.722656 30.332031 23.101562.992187 4.605469 5.0625 7.894532 9.773437 7.898438h35.433594v50h-151zm-91 62.285156c0-14.417968 12.851562-26.285156 28.257812-26.285156h42.742188v23.703125c.148438 5.652344 4.714844 10.1875 10.371094 10.296875h170.71875c5.5625-.148438 9.976562-4.734375 9.910156-10.296875v-23.703125h43.746094c15.402344 0 28.253906 11.867188 28.253906 26.285156v336.566406c0 14.421876-12.851562 26.148438-28.253906 26.148438h-277.488282c-15.40625 0-28.257812-11.726562-28.257812-26.148438zm0 0"/><path d="m113.257812 376h147.488282c5.523437 0 10-4.476562 10-10 0-5.519531-4.476563-10-10-10h-147.488282c-5.523437 0-10 4.480469-10 10 0 5.523438 4.476563 10 10 10zm0 0"/><path d="m83.257812 416h207.488282c5.523437 0 10-4.476562 10-10 0-5.519531-4.476563-10-10-10h-207.488282c-5.523437 0-10 4.480469-10 10 0 5.523438 4.476563 10 10 10zm0 0"/><path d="m118 270h39v39c0 5.523438 4.476562 10 10 10h40c5.523438 0 10-4.476562 10-10v-39h39c5.523438 0 10-4.476562 10-10v-40c0-5.519531-4.476562-10-10-10h-39v-39c0-5.519531-4.476562-10-10-10h-40c-5.523438 0-10 4.480469-10 10v39h-39c-5.523438 0-10 4.480469-10 10v40c0 5.523438 4.476562 10 10 10zm10-40h39c5.523438 0 10-4.476562 10-10v-39h20v39c0 5.523438 4.476562 10 10 10h39v20h-39c-5.523438 0-10 4.480469-10 10v39h-20v-39c0-5.519531-4.476562-10-10-10h-39zm0 0"/></svg>